<mxfile host="app.diagrams.net" agent="Mozilla/5.0 (Windows NT 10.0; Win64; x64) AppleWebKit/537.36 (KHTML, like Gecko) Chrome/130.0.0.0 Safari/537.36" version="24.8.3">
  <diagram id="C5RBs43oDa-KdzZeNtuy" name="Page-1">
    <mxGraphModel dx="1261" dy="541" grid="1" gridSize="10" guides="1" tooltips="1" connect="1" arrows="1" fold="1" page="1" pageScale="1" pageWidth="827" pageHeight="1169" math="0" shadow="0">
      <root>
        <mxCell id="WIyWlLk6GJQsqaUBKTNV-0" />
        <mxCell id="WIyWlLk6GJQsqaUBKTNV-1" parent="WIyWlLk6GJQsqaUBKTNV-0" />
        <mxCell id="m38KTp49a1KfQT3s7B7f-2" value="" style="edgeStyle=orthogonalEdgeStyle;rounded=0;orthogonalLoop=1;jettySize=auto;html=1;" edge="1" parent="WIyWlLk6GJQsqaUBKTNV-1" source="m38KTp49a1KfQT3s7B7f-0" target="m38KTp49a1KfQT3s7B7f-1">
          <mxGeometry relative="1" as="geometry" />
        </mxCell>
        <mxCell id="m38KTp49a1KfQT3s7B7f-0" value="Start" style="ellipse;whiteSpace=wrap;html=1;" vertex="1" parent="WIyWlLk6GJQsqaUBKTNV-1">
          <mxGeometry x="354" y="20" width="120" height="50" as="geometry" />
        </mxCell>
        <mxCell id="m38KTp49a1KfQT3s7B7f-4" value="" style="edgeStyle=orthogonalEdgeStyle;rounded=0;orthogonalLoop=1;jettySize=auto;html=1;" edge="1" parent="WIyWlLk6GJQsqaUBKTNV-1" source="m38KTp49a1KfQT3s7B7f-1" target="m38KTp49a1KfQT3s7B7f-3">
          <mxGeometry relative="1" as="geometry" />
        </mxCell>
        <mxCell id="m38KTp49a1KfQT3s7B7f-1" value="init variables" style="whiteSpace=wrap;html=1;" vertex="1" parent="WIyWlLk6GJQsqaUBKTNV-1">
          <mxGeometry x="354" y="90" width="120" height="30" as="geometry" />
        </mxCell>
        <mxCell id="m38KTp49a1KfQT3s7B7f-6" value="" style="edgeStyle=orthogonalEdgeStyle;rounded=0;orthogonalLoop=1;jettySize=auto;html=1;" edge="1" parent="WIyWlLk6GJQsqaUBKTNV-1" source="m38KTp49a1KfQT3s7B7f-3" target="m38KTp49a1KfQT3s7B7f-5">
          <mxGeometry relative="1" as="geometry" />
        </mxCell>
        <mxCell id="m38KTp49a1KfQT3s7B7f-3" value="input type" style="shape=parallelogram;perimeter=parallelogramPerimeter;whiteSpace=wrap;html=1;fixedSize=1;" vertex="1" parent="WIyWlLk6GJQsqaUBKTNV-1">
          <mxGeometry x="354" y="140" width="120" height="30" as="geometry" />
        </mxCell>
        <mxCell id="m38KTp49a1KfQT3s7B7f-8" value="" style="edgeStyle=orthogonalEdgeStyle;rounded=0;orthogonalLoop=1;jettySize=auto;html=1;" edge="1" parent="WIyWlLk6GJQsqaUBKTNV-1" source="m38KTp49a1KfQT3s7B7f-5" target="m38KTp49a1KfQT3s7B7f-7">
          <mxGeometry relative="1" as="geometry" />
        </mxCell>
        <mxCell id="m38KTp49a1KfQT3s7B7f-14" value="" style="edgeStyle=orthogonalEdgeStyle;rounded=0;orthogonalLoop=1;jettySize=auto;html=1;" edge="1" parent="WIyWlLk6GJQsqaUBKTNV-1" source="m38KTp49a1KfQT3s7B7f-5" target="m38KTp49a1KfQT3s7B7f-13">
          <mxGeometry relative="1" as="geometry" />
        </mxCell>
        <mxCell id="m38KTp49a1KfQT3s7B7f-5" value="if type == 1" style="rhombus;whiteSpace=wrap;html=1;" vertex="1" parent="WIyWlLk6GJQsqaUBKTNV-1">
          <mxGeometry x="374" y="190" width="80" height="60" as="geometry" />
        </mxCell>
        <mxCell id="m38KTp49a1KfQT3s7B7f-10" value="" style="edgeStyle=orthogonalEdgeStyle;rounded=0;orthogonalLoop=1;jettySize=auto;html=1;" edge="1" parent="WIyWlLk6GJQsqaUBKTNV-1" source="m38KTp49a1KfQT3s7B7f-7" target="m38KTp49a1KfQT3s7B7f-9">
          <mxGeometry relative="1" as="geometry" />
        </mxCell>
        <mxCell id="m38KTp49a1KfQT3s7B7f-7" value="init variable for type double" style="whiteSpace=wrap;html=1;" vertex="1" parent="WIyWlLk6GJQsqaUBKTNV-1">
          <mxGeometry x="514" y="200" width="120" height="40" as="geometry" />
        </mxCell>
        <mxCell id="m38KTp49a1KfQT3s7B7f-12" value="" style="edgeStyle=orthogonalEdgeStyle;rounded=0;orthogonalLoop=1;jettySize=auto;html=1;" edge="1" parent="WIyWlLk6GJQsqaUBKTNV-1" source="m38KTp49a1KfQT3s7B7f-9" target="m38KTp49a1KfQT3s7B7f-11">
          <mxGeometry relative="1" as="geometry" />
        </mxCell>
        <mxCell id="m38KTp49a1KfQT3s7B7f-9" value="op1=((a+b)^3)&lt;div&gt;op2=((a^3)+3(a^2)b)&lt;/div&gt;&lt;div&gt;op3=op1-op2&lt;/div&gt;&lt;div&gt;op4=(3a(b^2)+(b^3))&lt;/div&gt;&lt;div&gt;op5=op3/op4&lt;/div&gt;" style="whiteSpace=wrap;html=1;" vertex="1" parent="WIyWlLk6GJQsqaUBKTNV-1">
          <mxGeometry x="499" y="260" width="150" height="90" as="geometry" />
        </mxCell>
        <mxCell id="m38KTp49a1KfQT3s7B7f-26" style="edgeStyle=orthogonalEdgeStyle;rounded=0;orthogonalLoop=1;jettySize=auto;html=1;exitX=0.5;exitY=1;exitDx=0;exitDy=0;" edge="1" parent="WIyWlLk6GJQsqaUBKTNV-1" source="m38KTp49a1KfQT3s7B7f-11">
          <mxGeometry relative="1" as="geometry">
            <mxPoint x="300" y="490" as="targetPoint" />
            <Array as="points">
              <mxPoint x="574" y="490" />
              <mxPoint x="575" y="490" />
            </Array>
          </mxGeometry>
        </mxCell>
        <mxCell id="m38KTp49a1KfQT3s7B7f-11" value="output of result for&lt;div&gt;&amp;nbsp;type double&lt;/div&gt;" style="shape=parallelogram;perimeter=parallelogramPerimeter;whiteSpace=wrap;html=1;fixedSize=1;" vertex="1" parent="WIyWlLk6GJQsqaUBKTNV-1">
          <mxGeometry x="509" y="370" width="130" height="50" as="geometry" />
        </mxCell>
        <mxCell id="m38KTp49a1KfQT3s7B7f-16" value="" style="edgeStyle=orthogonalEdgeStyle;rounded=0;orthogonalLoop=1;jettySize=auto;html=1;" edge="1" parent="WIyWlLk6GJQsqaUBKTNV-1" source="m38KTp49a1KfQT3s7B7f-13" target="m38KTp49a1KfQT3s7B7f-15">
          <mxGeometry relative="1" as="geometry" />
        </mxCell>
        <mxCell id="m38KTp49a1KfQT3s7B7f-22" value="" style="edgeStyle=orthogonalEdgeStyle;rounded=0;orthogonalLoop=1;jettySize=auto;html=1;" edge="1" parent="WIyWlLk6GJQsqaUBKTNV-1" source="m38KTp49a1KfQT3s7B7f-13" target="m38KTp49a1KfQT3s7B7f-21">
          <mxGeometry relative="1" as="geometry" />
        </mxCell>
        <mxCell id="m38KTp49a1KfQT3s7B7f-13" value="if type == 2" style="rhombus;whiteSpace=wrap;html=1;" vertex="1" parent="WIyWlLk6GJQsqaUBKTNV-1">
          <mxGeometry x="260" y="190" width="80" height="60" as="geometry" />
        </mxCell>
        <mxCell id="m38KTp49a1KfQT3s7B7f-18" value="" style="edgeStyle=orthogonalEdgeStyle;rounded=0;orthogonalLoop=1;jettySize=auto;html=1;" edge="1" parent="WIyWlLk6GJQsqaUBKTNV-1" source="m38KTp49a1KfQT3s7B7f-15" target="m38KTp49a1KfQT3s7B7f-17">
          <mxGeometry relative="1" as="geometry" />
        </mxCell>
        <mxCell id="m38KTp49a1KfQT3s7B7f-15" value="init variables for type float" style="whiteSpace=wrap;html=1;" vertex="1" parent="WIyWlLk6GJQsqaUBKTNV-1">
          <mxGeometry x="240" y="270" width="120" height="40" as="geometry" />
        </mxCell>
        <mxCell id="m38KTp49a1KfQT3s7B7f-20" value="" style="edgeStyle=orthogonalEdgeStyle;rounded=0;orthogonalLoop=1;jettySize=auto;html=1;" edge="1" parent="WIyWlLk6GJQsqaUBKTNV-1" source="m38KTp49a1KfQT3s7B7f-17" target="m38KTp49a1KfQT3s7B7f-19">
          <mxGeometry relative="1" as="geometry" />
        </mxCell>
        <mxCell id="m38KTp49a1KfQT3s7B7f-17" value="&#xa;&lt;span style=&quot;color: rgb(0, 0, 0); font-family: Helvetica; font-size: 12px; font-style: normal; font-variant-ligatures: normal; font-variant-caps: normal; font-weight: 400; letter-spacing: normal; orphans: 2; text-align: center; text-indent: 0px; text-transform: none; widows: 2; word-spacing: 0px; -webkit-text-stroke-width: 0px; white-space: normal; background-color: rgb(251, 251, 251); text-decoration-thickness: initial; text-decoration-style: initial; text-decoration-color: initial; display: inline !important; float: none;&quot;&gt;op1=((a+b)^3)&lt;/span&gt;&lt;div style=&quot;forced-color-adjust: none; color: rgb(0, 0, 0); font-family: Helvetica; font-size: 12px; font-style: normal; font-variant-ligatures: normal; font-variant-caps: normal; font-weight: 400; letter-spacing: normal; orphans: 2; text-align: center; text-indent: 0px; text-transform: none; widows: 2; word-spacing: 0px; -webkit-text-stroke-width: 0px; white-space: normal; background-color: rgb(251, 251, 251); text-decoration-thickness: initial; text-decoration-style: initial; text-decoration-color: initial;&quot;&gt;op2=((a^3)+3(a^2)b)&lt;/div&gt;&lt;div style=&quot;forced-color-adjust: none; color: rgb(0, 0, 0); font-family: Helvetica; font-size: 12px; font-style: normal; font-variant-ligatures: normal; font-variant-caps: normal; font-weight: 400; letter-spacing: normal; orphans: 2; text-align: center; text-indent: 0px; text-transform: none; widows: 2; word-spacing: 0px; -webkit-text-stroke-width: 0px; white-space: normal; background-color: rgb(251, 251, 251); text-decoration-thickness: initial; text-decoration-style: initial; text-decoration-color: initial;&quot;&gt;op3=op1-op2&lt;/div&gt;&lt;div style=&quot;forced-color-adjust: none; color: rgb(0, 0, 0); font-family: Helvetica; font-size: 12px; font-style: normal; font-variant-ligatures: normal; font-variant-caps: normal; font-weight: 400; letter-spacing: normal; orphans: 2; text-align: center; text-indent: 0px; text-transform: none; widows: 2; word-spacing: 0px; -webkit-text-stroke-width: 0px; white-space: normal; background-color: rgb(251, 251, 251); text-decoration-thickness: initial; text-decoration-style: initial; text-decoration-color: initial;&quot;&gt;op4=(3a(b^2)+(b^3))&lt;/div&gt;&lt;div style=&quot;forced-color-adjust: none; color: rgb(0, 0, 0); font-family: Helvetica; font-size: 12px; font-style: normal; font-variant-ligatures: normal; font-variant-caps: normal; font-weight: 400; letter-spacing: normal; orphans: 2; text-align: center; text-indent: 0px; text-transform: none; widows: 2; word-spacing: 0px; -webkit-text-stroke-width: 0px; white-space: normal; background-color: rgb(251, 251, 251); text-decoration-thickness: initial; text-decoration-style: initial; text-decoration-color: initial;&quot;&gt;op5=op3/op4&lt;/div&gt;&#xa;&#xa;" style="whiteSpace=wrap;html=1;" vertex="1" parent="WIyWlLk6GJQsqaUBKTNV-1">
          <mxGeometry x="230" y="330" width="140" height="90" as="geometry" />
        </mxCell>
        <mxCell id="m38KTp49a1KfQT3s7B7f-25" value="" style="edgeStyle=orthogonalEdgeStyle;rounded=0;orthogonalLoop=1;jettySize=auto;html=1;" edge="1" parent="WIyWlLk6GJQsqaUBKTNV-1" source="m38KTp49a1KfQT3s7B7f-19" target="m38KTp49a1KfQT3s7B7f-24">
          <mxGeometry relative="1" as="geometry" />
        </mxCell>
        <mxCell id="m38KTp49a1KfQT3s7B7f-19" value="output of result for type float" style="shape=parallelogram;perimeter=parallelogramPerimeter;whiteSpace=wrap;html=1;fixedSize=1;" vertex="1" parent="WIyWlLk6GJQsqaUBKTNV-1">
          <mxGeometry x="240" y="430" width="120" height="40" as="geometry" />
        </mxCell>
        <mxCell id="m38KTp49a1KfQT3s7B7f-23" style="edgeStyle=orthogonalEdgeStyle;rounded=0;orthogonalLoop=1;jettySize=auto;html=1;exitX=0.5;exitY=1;exitDx=0;exitDy=0;" edge="1" parent="WIyWlLk6GJQsqaUBKTNV-1" source="m38KTp49a1KfQT3s7B7f-21">
          <mxGeometry relative="1" as="geometry">
            <mxPoint x="300" y="490" as="targetPoint" />
            <Array as="points">
              <mxPoint x="160" y="490" />
            </Array>
          </mxGeometry>
        </mxCell>
        <mxCell id="m38KTp49a1KfQT3s7B7f-21" value="output &quot;Choose valid type&quot;" style="shape=parallelogram;perimeter=parallelogramPerimeter;whiteSpace=wrap;html=1;fixedSize=1;" vertex="1" parent="WIyWlLk6GJQsqaUBKTNV-1">
          <mxGeometry x="90" y="190" width="140" height="60" as="geometry" />
        </mxCell>
        <mxCell id="m38KTp49a1KfQT3s7B7f-24" value="Finish" style="ellipse;whiteSpace=wrap;html=1;" vertex="1" parent="WIyWlLk6GJQsqaUBKTNV-1">
          <mxGeometry x="260" y="530" width="80" height="40" as="geometry" />
        </mxCell>
        <mxCell id="m38KTp49a1KfQT3s7B7f-28" value="+" style="text;html=1;align=center;verticalAlign=middle;whiteSpace=wrap;rounded=0;" vertex="1" parent="WIyWlLk6GJQsqaUBKTNV-1">
          <mxGeometry x="454" y="190" width="60" height="30" as="geometry" />
        </mxCell>
        <mxCell id="m38KTp49a1KfQT3s7B7f-29" value="-" style="text;html=1;align=center;verticalAlign=middle;whiteSpace=wrap;rounded=0;" vertex="1" parent="WIyWlLk6GJQsqaUBKTNV-1">
          <mxGeometry x="330" y="190" width="60" height="30" as="geometry" />
        </mxCell>
        <mxCell id="m38KTp49a1KfQT3s7B7f-30" value="-" style="text;html=1;align=center;verticalAlign=middle;whiteSpace=wrap;rounded=0;" vertex="1" parent="WIyWlLk6GJQsqaUBKTNV-1">
          <mxGeometry x="220" y="190" width="60" height="30" as="geometry" />
        </mxCell>
        <mxCell id="m38KTp49a1KfQT3s7B7f-31" value="+" style="text;html=1;align=center;verticalAlign=middle;whiteSpace=wrap;rounded=0;" vertex="1" parent="WIyWlLk6GJQsqaUBKTNV-1">
          <mxGeometry x="294" y="240" width="60" height="30" as="geometry" />
        </mxCell>
      </root>
    </mxGraphModel>
  </diagram>
</mxfile>
